<svg width="24" height="24" viewBox="0 0 24 24" fill="#ffffff" xmlns="http://www.w3.org/2000/svg">
<path d="M2.09 16.8H3.75V9.76002H2.09M2.92 8.84002C3.03986 8.84268 3.15905 8.82137 3.27056 8.77734C3.38207 8.7333 3.48366 8.66743 3.56936 8.58359C3.65507 8.49975 3.72315 8.39963 3.76963 8.28911C3.8161 8.1786 3.84003 8.05991 3.84 7.94002C3.84 7.44002 3.44 7.04002 2.92 7.04002C2.80014 7.03735 2.68095 7.05866 2.56944 7.1027C2.45793 7.14673 2.35634 7.2126 2.27064 7.29644C2.18493 7.38028 2.11684 7.4804 2.07037 7.59092C2.0239 7.70144 1.99997 7.82013 2 7.94002C2 8.44002 2.4 8.84002 2.92 8.84002ZM9.25 7.06002C6.46 7.06002 4.7 8.96002 4.7 12C4.7 15.06 6.46 16.96 9.25 16.96C12.04 16.96 13.8 15.06 13.8 12C13.8 8.96002 12.04 7.06002 9.25 7.06002ZM9.25 8.50002C10.96 8.50002 12.05 9.87002 12.05 12C12.05 14.15 10.96 15.5 9.25 15.5C7.54 15.5 6.46 14.15 6.46 12C6.46 9.87002 7.54 8.50002 9.25 8.50002ZM14.5 14.11C14.57 15.87 16 16.96 18.22 16.96C20.54 16.96 22 15.82 22 14C22 12.57 21.18 11.77 19.23 11.32L18.13 11.07C16.95 10.79 16.47 10.42 16.47 9.78002C16.47 9.00002 17.2 8.45002 18.28 8.45002C19.38 8.45002 20.13 9.00002 20.21 9.89002H21.84C21.8 8.20002 20.41 7.06002 18.29 7.06002C16.21 7.06002 14.73 8.21002 14.73 9.91002C14.73 11.28 15.56 12.13 17.33 12.53L18.57 12.82C19.78 13.11 20.27 13.5 20.27 14.2C20.27 15 19.47 15.57 18.31 15.57C17.15 15.57 16.26 15 16.16 14.11H14.5Z"/>
</svg>
