<svg width="24" height="24" viewBox="0 0 24 24" fill="none" xmlns="http://www.w3.org/2000/svg">
<path fill-rule="evenodd" clip-rule="evenodd" d="M1 12C1 5.92547 5.92547 1 12 1C18.0745 1 23 5.92547 23 12C23 18.0745 18.0745 23 12 23C5.92547 23 1 18.0749 1 12ZM16.2542 8.62669C16.0603 8.58388 15.8863 8.40691 15.8863 8.40691L15.9596 8.18712L16.1809 8.0406C16.1809 8.0406 16.4007 8.05887 16.4739 8.11386C16.5472 8.16881 16.6204 8.40691 16.6204 8.40691L16.4556 8.55343C16.4556 8.55343 16.419 8.66328 16.2542 8.62669ZM17.4996 7.37968L17.7942 6.94008H18.1605C18.1605 6.94008 18.4719 7.39795 18.4719 7.47131C18.4719 7.54457 18.2337 7.89401 18.2337 7.89401L17.756 7.87574L17.4996 7.37968ZM17.4996 11.0457C17.7484 11.2045 18.0124 11.2014 18.2689 11.1983C18.6978 11.1937 19.1098 11.0594 19.4059 10.716C19.5745 10.4712 19.6276 10.2913 19.6931 10.069C19.7207 9.9754 19.7505 9.87426 19.7921 9.75758C19.8745 9.52705 19.9752 9.39583 19.9752 9.39583C19.9752 9.39583 20.0576 9.70719 20.0485 10.075C20.0424 10.3208 19.9981 10.5802 19.847 10.826C19.554 11.3037 19.2777 11.4868 19.0763 11.5234C18.8748 11.56 18.307 11.6333 17.9406 11.4685C17.6538 11.3388 17.4996 11.0457 17.4996 11.0457L17.4996 11.0457ZM15.8863 4.74063L14.1265 7.30629L15.3735 10.02L17.5728 12.807L19.2594 13.3931L21.387 10.8259L21.094 8.62653L18.8931 5.54645L15.8863 4.7406L15.8863 4.74063ZM3.42076 6.86714L3.20097 12.7326L3.20101 12.7327C3.20101 12.6962 4.81426 8.84687 4.81426 8.84687L8.93222 12.0124L8.84675 4.30008L8.33388 4.961L8.26062 4.37331L7.89285 5.03423L7.74632 3.76895L7.01367 8.11418L4.15344 5.9865L3.42076 6.86714ZM9.58002 3.93342L9.58013 3.93339L9.65494 12.7324L13.8706 9.72707H13.1746L13.5775 9.48136C13.5775 9.48136 12.9908 9.47018 12.8919 9.50261C13.001 9.44392 13.773 9.00513 13.773 9.00513L10.9005 9.35923V8.55338L14.7146 5.83961L10.9005 6.05943V5.91283L14.4199 3.86007L13.1012 3.93329L14.2734 3.20064C14.2734 3.20064 13.6873 3.12738 13.6141 3.12738C13.5408 3.12738 14.5436 2.53982 14.5436 2.53982L9.58013 3.93339L9.58013 3.93314L9.58002 3.93342ZM9.21327 15.0063L9.21345 15.0067L9.21349 15.0064L9.21327 15.0063ZM8.00157 12.3539L9.21327 15.0063C9.18965 14.9885 7.2439 13.526 6.1334 13.5396C5.01767 13.5533 4.64072 14.5684 4.66667 15.3727C4.69418 16.1769 5.19018 17.1768 5.80672 17.7903C6.55923 18.5382 7.45361 18.819 7.45361 18.819L7.01407 17.1325L5.84039 17.0592L6.27993 16.6196L5.6206 16.5464L6.35472 15.9588L5.91358 15.8855L8.1145 15.2261L9.14019 21.7526C9.14019 21.7526 7.82145 21.1237 7.10869 20.6903C6.39594 20.2583 5.43282 19.5471 5.43282 19.5471C5.43282 19.5471 3.44403 18.1369 3.56768 15.153C3.70444 11.8681 5.80909 11.8012 6.12452 11.7912L6.13799 11.7908C7.33001 11.748 8.00157 12.3539 8.00157 12.3539ZM8.62732 16.8398L8.62743 16.8397L12.0004 21.3132L11.5059 20.3898L12.1256 20.9286L11.7806 20.0662L12.5133 20.2128L10.5336 16.4002L14.1264 16.5468L12.3666 13.6132L12.5864 13.3934L15.3001 14.3457L14.8605 13.7597L15.6664 14.0528C15.6664 14.0528 15.0437 13.1828 15.0803 13.1737C15.1169 13.1629 15.4466 13.2469 15.4466 13.2469L12.8062 11.1192L8.62743 16.8397L8.62742 16.8397L8.62732 16.8398ZM15.0801 18.1598L14.8603 18.5261L15.1534 19.3336H15.8859L16.1058 19.7731H16.6201L17.719 19.2588L17.2795 18.3064L16.6934 18.5261H16.2538L15.7394 17.8668L15.0801 18.1598ZM18.9659 16.4733C18.94 16.4275 18.6728 16.5466 18.6728 16.5466V16.9129L19.0391 17.1327L19.3322 16.9129V16.5466C19.3322 16.5466 18.9918 16.5176 18.9659 16.4733ZM16.8397 15.7392L17.1329 16.1802L17.867 16.107L18.0868 15.5194L17.867 15.0798L17.1329 15.1531L16.8397 15.7392ZM13.7596 20.2127L13.8328 17.5722L13.8329 17.5721L16.6932 13.9794H20.6523L20.4325 17.7203L16.9999 20.7316L14.9334 21.1666L13.7596 20.2127Z" fill="white"/>
</svg>
