<svg width="24" height="24" viewBox="0 0 24 24" fill="none" xmlns="http://www.w3.org/2000/svg">
<path d="M5.34598 15V12.4219H3.92801V11.3584H5.34598V8.89076H6.16085L7.38546 10.1108V11.3124L6.66267 11.9247L7.38546 12.5462V13.7846L6.16085 15H5.34598ZM1.47879 11.0822V10.1108L2.6988 8.89076H5.02372V10.189H3.51367V11.0822H1.47879ZM2.6988 15L1.47879 13.78V12.8362H3.51367V13.6971H5.02372V15H2.6988ZM10.7186 15V13.78H12.2287V10.1108H10.7186V8.89076H13.0435L14.2681 10.1108V13.78L13.0435 15H10.7186ZM8.36147 15V8.89076H10.3963V15H8.36147ZM18.3333 15V13.757H19.1113V10.1292H18.3333V8.89076H19.9124L21.1462 10.1108V13.78L19.9124 15H18.3333ZM16.4457 15L15.2073 13.78V10.1108L16.4457 8.89076H18.011V10.1292H17.2468V13.757H18.011V15H16.4457Z" fill="white"/>
</svg>
