<svg width="24" height="24" viewBox="0 0 24 24" fill="none" xmlns="http://www.w3.org/2000/svg">
<path d="M1 20.8936C1 20.8936 3.75975 20.583 5.9105 18.8076C7.95712 17.1189 8.69737 15.6646 9.20925 14.0161C9.72025 12.3668 9.79638 8.3995 9.79638 7.22262V4H8.52325V5.19438C8.50225 6.98025 8.34825 10.3726 7.53012 12.5829C5.55262 17.909 1 18.3754 1 18.3754V20.8936ZM22 20.8936C22 20.8936 19.2402 20.583 17.0912 18.8076C15.042 17.1189 14.3026 15.6646 13.7908 14.0161C13.2806 12.3668 13.2036 8.3995 13.2036 7.22262V4H14.475L14.4759 5.19438C14.4969 6.98025 14.6526 10.3726 15.4716 12.5829C17.4474 17.909 21.9991 18.3754 21.9991 18.3754L22 20.8936ZM10.3266 4.00175H12.676V20.8945H10.3275L10.3266 4.00175Z" fill="white"/>
</svg>
