<svg width="24" height="24" viewBox="0 0 24 24" fill="none" xmlns="http://www.w3.org/2000/svg">
<path d="M19.4008 5.45L19.3958 8.225H10.5625C10.4784 8.23096 10.3997 8.26858 10.3422 8.33028C10.2847 8.39198 10.2527 8.47317 10.2527 8.5575C10.2527 8.64183 10.2847 8.72302 10.3422 8.78472C10.3997 8.84642 10.4784 8.88404 10.5625 8.89L12.8625 8.87667C14.5836 8.90421 16.2248 9.60726 17.4321 10.8341C18.6394 12.061 19.316 13.7133 19.3159 15.4346C19.3158 17.1558 18.639 18.8081 17.4315 20.0348C16.224 21.2615 14.5827 21.9643 12.8617 21.9917L4 22L4.00417 19.1875H12.8667C13.3597 19.1874 13.8478 19.0902 14.3033 18.9014C14.7587 18.7126 15.1725 18.436 15.521 18.0873C15.8695 17.7387 16.146 17.3247 16.3346 16.8692C16.5231 16.4137 16.6201 15.9255 16.62 15.4325C16.6199 14.9395 16.5227 14.4513 16.3339 13.9959C16.1451 13.5405 15.8685 13.1267 15.5198 12.7781C15.1712 12.4296 14.7572 12.1532 14.3017 11.9646C13.8462 11.7761 13.358 11.6791 12.865 11.6792L10.5558 11.6542C10.1484 11.6544 9.74493 11.5744 9.36843 11.4186C8.99193 11.2629 8.6498 11.0346 8.36155 10.7466C8.0733 10.4587 7.84459 10.1168 7.68847 9.74048C7.53235 9.36415 7.45189 8.96076 7.45167 8.55333C7.45145 8.14591 7.53148 7.74243 7.68719 7.36593C7.84291 6.98943 8.07125 6.64729 8.35919 6.35905C8.64713 6.0708 8.98902 5.84209 9.36535 5.68597C9.74168 5.52985 10.1451 5.44939 10.5525 5.44917L19.4008 5.45ZM4.0125 18.5358L4.00917 15.76H12.85C13.025 15.76 13.1692 15.6142 13.1692 15.4375C13.1692 15.3526 13.1355 15.2711 13.0755 15.2109C13.0155 15.1508 12.9341 15.1169 12.8492 15.1167H10.5625C6.94167 15.1167 4.00667 12.1792 4.00667 8.5575C4.00667 4.93583 6.94167 2 10.5625 2L19.3958 2.0025L19.4008 4.79417L10.5642 4.79667C8.48917 4.79667 6.81417 6.47917 6.81417 8.5525C6.81549 9.54913 7.21262 10.5044 7.9182 11.2083C8.62378 11.9121 9.58004 12.3069 10.5767 12.3058L12.8892 12.3308C13.7029 12.3442 14.4787 12.6768 15.0494 13.2569C15.6202 13.8371 15.94 14.6183 15.94 15.4321C15.94 16.2459 15.6202 17.0271 15.0494 17.6072C14.4787 18.1874 13.7029 18.52 12.8892 18.5333H4.01417L4.0125 18.5358Z" fill="white"/>
</svg>
