<svg width="24" height="24" viewBox="0 0 24 24" fill="#ffffff" xmlns="http://www.w3.org/2000/svg">
<path  fill-rule="evenodd" clip-rule="evenodd" d="M21.3417 19.6115C21.0052 19.3344 20.6613 19.0638 20.3465 18.7631C19.9958 18.4284 19.7755 18.0236 19.8235 17.511C19.8511 17.216 19.783 16.9623 19.4273 16.8637C19.511 16.6473 19.5893 16.5022 19.621 16.3475C19.6563 16.175 19.6544 15.9937 19.6593 15.8162C19.7088 13.9487 19.0342 12.3116 18.035 10.7846C17.5748 10.0818 17.0943 9.39166 16.6038 8.70972C15.8365 7.64322 15.5615 6.4451 15.5476 5.15078C15.5397 4.55331 15.4718 3.95813 15.3449 3.37422C15.0987 2.24172 14.492 1.35616 13.3915 0.881222C12.5483 0.517097 11.6755 0.44491 10.7851 0.677972C9.49116 1.01641 8.70872 1.9781 8.72335 3.31947C8.73722 4.61041 8.80154 5.90303 8.89622 7.19097C8.95022 7.92091 8.83772 8.55072 8.35341 9.12972C7.88766 9.68641 7.47104 10.287 7.06754 10.8917C6.8371 11.2374 6.6331 11.6141 6.4906 12.0037C6.10247 13.0655 5.74566 14.1362 5.12635 15.0975C4.89685 15.4537 4.87079 15.8523 5.03372 16.2598C5.07591 16.3653 5.10179 16.5277 5.05041 16.6127C4.60904 17.3452 4.11085 17.9898 3.16304 18.1305C2.41754 18.2413 2.38079 18.3768 2.40347 19.1454C2.42222 19.7711 2.41491 20.4026 2.35097 21.0243C2.28291 21.6909 2.35247 21.872 2.99635 22.0318C4.4821 22.4008 5.98004 22.7156 7.4011 23.3169C8.00616 23.5728 8.61329 23.484 9.1006 22.9863C9.60929 22.4668 10.252 22.2635 10.9463 22.2628C12.1248 22.2618 13.3036 22.3187 14.4826 22.332C14.8017 22.3357 14.9849 22.4544 15.1133 22.7443C15.2708 23.0992 15.5371 23.36 15.9468 23.4054C16.733 23.492 17.4492 23.3754 18.0449 22.7756C18.7795 22.0353 19.6267 21.4507 20.5977 21.0455C20.8756 20.9295 21.1373 20.747 21.367 20.549C21.7853 20.1887 21.7632 19.9592 21.3417 19.6115ZM11.7048 4.52247C11.8469 4.03478 12.1805 3.71828 12.6878 3.62228C13.1146 3.54166 13.4759 3.75128 13.7452 4.23091C14.035 4.74803 14.1303 5.28841 13.8828 5.85428C13.6797 6.31816 13.5845 6.36185 13.1097 6.20453C13.0208 6.1751 12.934 6.14022 12.7765 6.08228C12.9093 5.97091 12.9929 5.88822 13.0885 5.82316C13.3012 5.67841 13.3608 5.47478 13.3409 5.23291C13.3148 4.91528 13.0651 4.63403 12.809 4.6376C12.5793 4.64078 12.3848 4.85641 12.359 5.18416C12.3428 5.38835 12.3768 5.59647 12.3914 5.8571C11.7453 5.66528 11.5081 5.19616 11.7048 4.52247ZM9.31416 4.10041C9.55304 3.73891 9.9136 3.66653 10.2706 3.90841C10.651 4.16641 10.9357 4.89391 10.7887 5.32891C10.7352 5.48716 10.5773 5.61016 10.4669 5.7491L10.3537 5.67897C10.3105 5.44403 10.3019 5.19428 10.2117 4.97903C10.1547 4.84253 9.97604 4.75703 9.85191 4.64866C9.73529 4.78722 9.53447 4.91922 9.52247 5.06641C9.50597 5.26966 9.61191 5.49391 9.70416 5.69097C9.76247 5.81491 9.89185 5.90566 10.0253 6.05022L9.66497 6.33335C9.0991 5.8271 8.93091 4.6796 9.31416 4.10041ZM16.3762 16.139C16.3381 16.6273 16.2824 16.6477 15.7915 16.7199C15.443 16.7709 15.3492 16.8617 15.3316 17.2757C15.3124 17.76 15.3117 18.2449 15.3293 18.7293C15.3408 19.0612 15.2287 19.3215 15.0003 19.553C13.732 20.8385 12.2168 21.4477 10.4043 21.2267C9.62241 21.1312 9.11129 20.6553 8.6986 19.9818C8.88235 19.9138 9.01829 19.868 9.15085 19.8142C9.73622 19.5761 9.84572 19.0727 9.37829 18.6373C9.02504 18.3078 8.63091 18.0217 8.25197 17.72C7.8856 17.4285 7.51435 17.1429 7.14741 16.8521C6.83466 16.604 6.71522 16.2843 6.70772 15.8793C6.6901 14.9077 6.88997 13.9987 7.2961 13.1143C7.65835 12.3251 7.93904 11.4986 8.27841 10.6983C8.45372 10.2855 8.63579 9.86303 8.89304 9.5006C9.14035 9.15297 9.29316 8.81266 9.26579 8.38685C9.25004 8.1476 9.26279 7.90647 9.26279 7.66628L9.39535 7.60028C9.60929 7.78497 9.82697 7.96572 10.0372 8.1551C10.7956 8.83872 11.5169 8.87003 12.347 8.28072C12.701 8.02928 13.0838 7.8176 13.4583 7.59597C13.5515 7.54085 13.663 7.51666 13.8209 7.4576C14.2242 8.40747 14.62 9.33878 15.0162 10.2701C15.2172 10.7433 15.3785 11.2389 15.6282 11.6852C16.129 12.5805 16.3955 13.5251 16.3913 14.5487C16.3891 15.0793 16.417 15.6118 16.3762 16.139Z"/>
</svg>
