<svg width="24" height="24" viewBox="0 0 24 24" fill="#ffffff" xmlns="http://www.w3.org/2000/svg">
<path d="M22.5848 17.011C22.1548 17.554 21.1018 17.941 21.1018 17.941L13.2698 20.758V18.68L19.0338 16.623C19.6878 16.389 19.7878 16.057 19.2568 15.883C18.7258 15.709 17.7648 15.758 17.1098 15.994L13.2698 17.348V15.193L13.4908 15.117C13.4908 15.117 14.6008 14.724 16.1608 14.551C17.7218 14.379 19.6328 14.575 21.1328 15.144C22.8228 15.679 23.0128 16.468 22.5848 17.011ZM14.0148 13.473V8.162C14.0148 7.538 13.8998 6.964 13.3148 6.802C12.8678 6.658 12.5898 7.074 12.5898 7.697V21L9.00676 19.861V4C10.5298 4.283 12.7498 4.953 13.9428 5.355C16.9778 6.398 18.0068 7.697 18.0068 10.622C18.0068 13.473 16.2488 14.554 14.0148 13.474M2.43176 18.464C0.695762 17.974 0.406762 16.954 1.19776 16.367C1.92876 15.825 3.17276 15.417 3.17276 15.417L8.31076 13.587V15.673L4.61276 16.998C3.95976 17.232 3.85976 17.564 4.38976 17.738C4.92176 17.913 5.88276 17.863 6.53676 17.628L8.31076 16.984V18.849L7.95676 18.909C6.18276 19.199 4.29376 19.078 2.43176 18.464Z"/>
</svg>
