<svg width="24" height="24" viewBox="0 0 24 24" fill="#ffffff" xmlns="http://www.w3.org/2000/svg">
<path d="M2.69189 17.02C2.82923 15.5053 3.29523 14.1143 4.08989 12.847C4.88456 11.5803 5.94323 10.5737 7.26589 9.82699L5.70389 7.12699C5.61656 6.98965 5.59456 6.85365 5.63789 6.71899C5.68189 6.58432 5.77423 6.47532 5.91489 6.39199C6.04823 6.32132 6.17923 6.30799 6.30789 6.35199C6.43589 6.39532 6.54223 6.48065 6.62689 6.60799L8.1919 9.32299C9.40523 8.81365 10.6746 8.55899 11.9999 8.55899C13.3252 8.55899 14.5946 8.81365 15.8079 9.32299L17.3729 6.60799C17.4576 6.48132 17.5642 6.39599 17.6929 6.35199C17.8209 6.30799 17.9512 6.32132 18.0839 6.39199C18.2252 6.47532 18.3179 6.58432 18.3619 6.71899C18.4052 6.85365 18.3832 6.98965 18.2959 7.12699L16.7349 9.82699C18.0569 10.5737 19.1152 11.5803 19.9099 12.847C20.7046 14.1143 21.1706 15.505 21.3079 17.019L2.69189 17.02ZM7.77189 14.692C8.06856 14.692 8.31856 14.5897 8.52189 14.385C8.72523 14.1797 8.82689 13.9287 8.82689 13.632C8.82689 13.3353 8.72423 13.0853 8.51889 12.882C8.31356 12.6787 8.06289 12.577 7.76689 12.577C7.47089 12.577 7.22089 12.6797 7.01689 12.885C6.81289 13.0903 6.71089 13.341 6.71089 13.637C6.71089 13.9343 6.81356 14.1843 7.01889 14.387C7.22423 14.5897 7.47523 14.6913 7.77189 14.692ZM16.2339 14.692C16.5306 14.692 16.7806 14.5897 16.9839 14.385C17.1866 14.1797 17.2879 13.9287 17.2879 13.632C17.2879 13.3353 17.1856 13.0853 16.9809 12.882C16.7762 12.6787 16.5252 12.577 16.2279 12.577C15.9306 12.577 15.6806 12.6797 15.4779 12.885C15.2752 13.0903 15.1736 13.341 15.1729 13.637C15.1722 13.933 15.2746 14.183 15.4799 14.387C15.6852 14.591 15.9372 14.6927 16.2339 14.692Z"/>
</svg>
