<svg width="24" height="24" viewBox="0 0 24 24" fill="#ffffff" xmlns="http://www.w3.org/2000/svg">
<path d="M2.75 7.189V2.865C2.75 2.763 2.75 2.75 2.865 2.75H11.487C11.615 2.75 11.627 2.75 11.627 2.878V11.5C11.627 11.628 11.627 11.628 11.487 11.628H2.865C2.763 11.628 2.75 11.628 2.75 11.512V7.189ZM7.189 21.25H2.865C2.763 21.25 2.75 21.25 2.75 21.134V12.59C2.75 12.462 2.75 12.462 2.878 12.462H11.513C11.615 12.462 11.628 12.462 11.628 12.577V21.147C11.628 21.237 11.628 21.25 11.512 21.25H7.189ZM21.25 7.189V11.499C21.25 11.615 21.25 11.615 21.134 11.615H12.577C12.475 11.615 12.449 11.615 12.449 11.5V2.865C12.449 2.775 12.449 2.763 12.564 2.763H21.044C21.25 2.763 21.25 2.763 21.25 2.968V7.189ZM12.487 16.85V12.577C12.487 12.487 12.487 12.462 12.59 12.487H21.211C21.237 12.487 21.211 12.577 21.211 12.629V21.147C21.2139 21.1576 21.2139 21.1688 21.2109 21.1794C21.2079 21.19 21.2021 21.1995 21.194 21.207C21.1865 21.2151 21.177 21.2209 21.1664 21.2239C21.1558 21.2269 21.1446 21.2269 21.134 21.224H12.54C12.54 21.224 12.45 21.224 12.463 21.134V16.85H12.487Z"/>
</svg>
