<svg width="24" height="24" viewBox="0 0 24 24" fill="none" xmlns="http://www.w3.org/2000/svg">
<path d="M11.601 2C6.29911 2 2 6.29911 2 11.601C2 16.9029 6.29911 21.202 11.601 21.202C12.5386 21.202 13.4463 21.0674 14.3042 20.8163V16.2438C13.4876 16.7189 12.56 16.9704 11.6152 16.9727C10.6704 16.9751 9.74164 16.7283 8.9226 16.2572C8.10357 15.7862 7.4232 15.1075 6.95011 14.2897C6.47701 13.4718 6.2279 12.5437 6.2279 11.5989C6.2279 10.654 6.47701 9.72589 6.95011 8.90804C7.4232 8.09018 8.10357 7.41152 8.9226 6.94046C9.74164 6.46941 10.6704 6.22263 11.6152 6.22499C12.56 6.22735 13.4876 6.47878 14.3042 6.95392V2.38569C13.4471 2.13456 12.5412 2 11.601 2ZM14.4936 7.43645V11.1253H19.0104L22.5699 7.43559L14.4936 7.43645ZM14.4619 12.045V15.7338H22.5382L18.9762 12.045H14.4619Z" fill="white"/>
</svg>
